<svg xmlns="http://www.w3.org/2000/svg" xmlns:svgjs="http://svgjs.com/svgjs" xmlns:xlink="http://www.w3.org/1999/xlink" width="288" height="288"><svg xmlns="http://www.w3.org/2000/svg" width="288" height="288" viewBox="0 0 101 101"><path fill="#f13c41" d="M83.9 17.1c-.9-.9-2.5-.9-3.4 0l-30 30-30-30c-.9-.9-2.5-.9-3.4 0s-.9 2.5 0 3.4l30 30-30 30c-.9.9-.9 2.5 0 3.4.5.5 1.1.7 1.7.7.6 0 1.2-.2 1.7-.7l30-30 30 30c.5.5 1.1.7 1.7.7.6 0 1.2-.2 1.7-.7.9-.9.9-2.5 0-3.4l-30-30 30-30c.9-.9.9-2.4 0-3.4z" class="color000 svgShape"/></svg></svg>